<svg width="161" height="14" viewBox="0 0 161 14" fill="none" xmlns="http://www.w3.org/2000/svg">
<path opacity="0.9" d="M4.968 13C4.848 13 4.752 12.964 4.68 12.892C4.608 12.82 4.572 12.724 4.572 12.604V1.876L1.35 4.36C1.254 4.42 1.17 4.45 1.098 4.45C0.978 4.45 0.876 4.396 0.792 4.288L0.594 4.036C0.534 3.952 0.504 3.868 0.504 3.784C0.504 3.664 0.558 3.562 0.666 3.478L4.5 0.526C4.62 0.441999 4.776 0.399999 4.968 0.399999H5.31C5.43 0.399999 5.526 0.435999 5.598 0.508C5.67 0.58 5.706 0.676 5.706 0.795999V12.604C5.706 12.724 5.67 12.82 5.598 12.892C5.526 12.964 5.43 13 5.31 13H4.968ZM12.1399 13C12.0199 13 11.9239 12.964 11.8519 12.892C11.7799 12.82 11.7439 12.724 11.7439 12.604V1.876L8.52188 4.36C8.42588 4.42 8.34188 4.45 8.26988 4.45C8.14988 4.45 8.04788 4.396 7.96388 4.288L7.76587 4.036C7.70588 3.952 7.67588 3.868 7.67588 3.784C7.67588 3.664 7.72988 3.562 7.83788 3.478L11.6719 0.526C11.7919 0.441999 11.9479 0.399999 12.1399 0.399999H12.4819C12.6019 0.399999 12.6979 0.435999 12.7699 0.508C12.8419 0.58 12.8779 0.676 12.8779 0.795999V12.604C12.8779 12.724 12.8419 12.82 12.7699 12.892C12.6979 12.964 12.6019 13 12.4819 13H12.1399ZM16.0538 13C15.9338 13 15.8378 12.964 15.7658 12.892C15.6938 12.82 15.6578 12.724 15.6578 12.604V11.74C15.6578 11.62 15.6938 11.524 15.7658 11.452C15.8378 11.368 15.9338 11.326 16.0538 11.326H16.9178C17.0378 11.326 17.1338 11.368 17.2058 11.452C17.2898 11.524 17.3318 11.62 17.3318 11.74V12.604C17.3318 12.724 17.2898 12.82 17.2058 12.892C17.1338 12.964 17.0378 13 16.9178 13H16.0538ZM23.8428 13.18C22.3308 13.18 21.2388 12.724 20.5668 11.812C19.9068 10.9 19.5588 9.7 19.5228 8.212L19.5048 6.718L19.5228 5.188C19.5588 3.7 19.9068 2.5 20.5668 1.588C21.2388 0.676 22.3308 0.219999 23.8428 0.219999C25.3548 0.219999 26.4408 0.676 27.1008 1.588C27.7728 2.5 28.1268 3.7 28.1628 5.188C28.1748 5.524 28.1808 6.034 28.1808 6.718C28.1808 7.39 28.1748 7.888 28.1628 8.212C28.1268 9.7 27.7728 10.9 27.1008 11.812C26.4408 12.724 25.3548 13.18 23.8428 13.18ZM23.8428 12.1C24.8748 12.1 25.6548 11.758 26.1828 11.074C26.7228 10.378 27.0048 9.394 27.0288 8.122C27.0408 7.774 27.0468 7.294 27.0468 6.682C27.0468 6.07 27.0408 5.602 27.0288 5.278C27.0048 4.03 26.7228 3.058 26.1828 2.362C25.6548 1.654 24.8748 1.3 23.8428 1.3C22.8108 1.3 22.0248 1.654 21.4848 2.362C20.9568 3.058 20.6808 4.03 20.6568 5.278L20.6388 6.682L20.6568 8.122C20.6808 9.394 20.9568 10.378 21.4848 11.074C22.0248 11.758 22.8108 12.1 23.8428 12.1ZM34.9346 13.18C33.4226 13.18 32.3306 12.724 31.6586 11.812C30.9986 10.9 30.6506 9.7 30.6146 8.212L30.5966 6.718L30.6146 5.188C30.6506 3.7 30.9986 2.5 31.6586 1.588C32.3306 0.676 33.4226 0.219999 34.9346 0.219999C36.4466 0.219999 37.5326 0.676 38.1926 1.588C38.8646 2.5 39.2186 3.7 39.2546 5.188C39.2666 5.524 39.2726 6.034 39.2726 6.718C39.2726 7.39 39.2666 7.888 39.2546 8.212C39.2186 9.7 38.8646 10.9 38.1926 11.812C37.5326 12.724 36.4466 13.18 34.9346 13.18ZM34.9346 12.1C35.9666 12.1 36.7466 11.758 37.2746 11.074C37.8146 10.378 38.0966 9.394 38.1206 8.122C38.1326 7.774 38.1386 7.294 38.1386 6.682C38.1386 6.07 38.1326 5.602 38.1206 5.278C38.0966 4.03 37.8146 3.058 37.2746 2.362C36.7466 1.654 35.9666 1.3 34.9346 1.3C33.9026 1.3 33.1166 1.654 32.5766 2.362C32.0486 3.058 31.7726 4.03 31.7486 5.278L31.7306 6.682L31.7486 8.122C31.7726 9.394 32.0486 10.378 32.5766 11.074C33.1166 11.758 33.9026 12.1 34.9346 12.1ZM45.4229 13C45.3269 13 45.2429 12.964 45.1709 12.892C45.0989 12.82 45.0629 12.736 45.0629 12.64L45.0989 12.442L49.6529 0.76C49.7489 0.519999 49.9229 0.399999 50.1749 0.399999H50.7869C51.0389 0.399999 51.2129 0.519999 51.3089 0.76L55.8629 12.442L55.8989 12.64C55.8989 12.736 55.8629 12.82 55.7909 12.892C55.7189 12.964 55.6349 13 55.5389 13H55.1789C55.0709 13 54.9809 12.97 54.9089 12.91C54.8489 12.85 54.8069 12.79 54.7829 12.73L53.6669 9.85H47.2949L46.1789 12.73C46.1549 12.79 46.1069 12.85 46.0349 12.91C45.9749 12.97 45.8909 13 45.7829 13H45.4229ZM53.2349 8.77L50.4809 1.678L47.7269 8.77H53.2349ZM58.4439 13C58.3239 13 58.2219 12.964 58.1379 12.892C58.0659 12.82 58.0299 12.724 58.0299 12.604V0.813999C58.0299 0.681999 58.0659 0.58 58.1379 0.508C58.2219 0.435999 58.3239 0.399999 58.4439 0.399999H58.8939C59.0739 0.399999 59.1999 0.477999 59.2719 0.633999L63.3579 8.59L67.4619 0.633999C67.5459 0.477999 67.6719 0.399999 67.8399 0.399999H68.2719C68.4039 0.399999 68.5059 0.435999 68.5779 0.508C68.6499 0.58 68.6859 0.681999 68.6859 0.813999V12.604C68.6859 12.724 68.6439 12.82 68.5599 12.892C68.4879 12.964 68.3919 13 68.2719 13H67.9479C67.8279 13 67.7319 12.964 67.6599 12.892C67.5879 12.82 67.5519 12.724 67.5519 12.604V2.848L64.1139 9.616C64.0059 9.856 63.8199 9.976 63.5559 9.976H63.1599C62.8959 9.976 62.7099 9.856 62.6019 9.616L59.1639 2.848V12.604C59.1639 12.724 59.1279 12.82 59.0559 12.892C58.9839 12.964 58.8879 13 58.7679 13H58.4439ZM76.7514 8.122C76.6314 8.122 76.5354 8.086 76.4634 8.014C76.3914 7.942 76.3554 7.846 76.3554 7.726V7.474C76.3554 7.354 76.3914 7.258 76.4634 7.186C76.5354 7.114 76.6314 7.078 76.7514 7.078H82.0614C82.1814 7.078 82.2774 7.114 82.3494 7.186C82.4214 7.258 82.4574 7.354 82.4574 7.474V7.726C82.4574 7.846 82.4214 7.942 82.3494 8.014C82.2774 8.086 82.1814 8.122 82.0614 8.122H76.7514ZM93.4035 13C93.2835 13 93.1875 12.964 93.1155 12.892C93.0435 12.82 93.0075 12.724 93.0075 12.604V1.876L89.7855 4.36C89.6895 4.42 89.6055 4.45 89.5335 4.45C89.4135 4.45 89.3115 4.396 89.2275 4.288L89.0295 4.036C88.9695 3.952 88.9395 3.868 88.9395 3.784C88.9395 3.664 88.9935 3.562 89.1015 3.478L92.9355 0.526C93.0555 0.441999 93.2115 0.399999 93.4035 0.399999H93.7455C93.8655 0.399999 93.9615 0.435999 94.0335 0.508C94.1055 0.58 94.1415 0.676 94.1415 0.795999V12.604C94.1415 12.724 94.1055 12.82 94.0335 12.892C93.9615 12.964 93.8655 13 93.7455 13H93.4035ZM101.151 13.18C99.6394 13.18 98.5474 12.724 97.8754 11.812C97.2154 10.9 96.8674 9.7 96.8314 8.212L96.8134 6.718L96.8314 5.188C96.8674 3.7 97.2154 2.5 97.8754 1.588C98.5474 0.676 99.6394 0.219999 101.151 0.219999C102.663 0.219999 103.749 0.676 104.409 1.588C105.081 2.5 105.435 3.7 105.471 5.188C105.483 5.524 105.489 6.034 105.489 6.718C105.489 7.39 105.483 7.888 105.471 8.212C105.435 9.7 105.081 10.9 104.409 11.812C103.749 12.724 102.663 13.18 101.151 13.18ZM101.151 12.1C102.183 12.1 102.963 11.758 103.491 11.074C104.031 10.378 104.313 9.394 104.337 8.122C104.349 7.774 104.355 7.294 104.355 6.682C104.355 6.07 104.349 5.602 104.337 5.278C104.313 4.03 104.031 3.058 103.491 2.362C102.963 1.654 102.183 1.3 101.151 1.3C100.119 1.3 99.3334 1.654 98.7934 2.362C98.2654 3.058 97.9894 4.03 97.9654 5.278L97.9474 6.682L97.9654 8.122C97.9894 9.394 98.2654 10.378 98.7934 11.074C99.3334 11.758 100.119 12.1 101.151 12.1ZM108.075 13C107.955 13 107.859 12.964 107.787 12.892C107.715 12.82 107.679 12.724 107.679 12.604V11.74C107.679 11.62 107.715 11.524 107.787 11.452C107.859 11.368 107.955 11.326 108.075 11.326H108.939C109.059 11.326 109.155 11.368 109.227 11.452C109.311 11.524 109.353 11.62 109.353 11.74V12.604C109.353 12.724 109.311 12.82 109.227 12.892C109.155 12.964 109.059 13 108.939 13H108.075ZM115.864 13.18C114.352 13.18 113.26 12.724 112.588 11.812C111.928 10.9 111.58 9.7 111.544 8.212L111.526 6.718L111.544 5.188C111.58 3.7 111.928 2.5 112.588 1.588C113.26 0.676 114.352 0.219999 115.864 0.219999C117.376 0.219999 118.462 0.676 119.122 1.588C119.794 2.5 120.148 3.7 120.184 5.188C120.196 5.524 120.202 6.034 120.202 6.718C120.202 7.39 120.196 7.888 120.184 8.212C120.148 9.7 119.794 10.9 119.122 11.812C118.462 12.724 117.376 13.18 115.864 13.18ZM115.864 12.1C116.896 12.1 117.676 11.758 118.204 11.074C118.744 10.378 119.026 9.394 119.05 8.122C119.062 7.774 119.068 7.294 119.068 6.682C119.068 6.07 119.062 5.602 119.05 5.278C119.026 4.03 118.744 3.058 118.204 2.362C117.676 1.654 116.896 1.3 115.864 1.3C114.832 1.3 114.046 1.654 113.506 2.362C112.978 3.058 112.702 4.03 112.678 5.278L112.66 6.682L112.678 8.122C112.702 9.394 112.978 10.378 113.506 11.074C114.046 11.758 114.832 12.1 115.864 12.1ZM126.956 13.18C125.444 13.18 124.352 12.724 123.68 11.812C123.02 10.9 122.672 9.7 122.636 8.212L122.618 6.718L122.636 5.188C122.672 3.7 123.02 2.5 123.68 1.588C124.352 0.676 125.444 0.219999 126.956 0.219999C128.468 0.219999 129.554 0.676 130.214 1.588C130.886 2.5 131.24 3.7 131.276 5.188C131.288 5.524 131.294 6.034 131.294 6.718C131.294 7.39 131.288 7.888 131.276 8.212C131.24 9.7 130.886 10.9 130.214 11.812C129.554 12.724 128.468 13.18 126.956 13.18ZM126.956 12.1C127.988 12.1 128.768 11.758 129.296 11.074C129.836 10.378 130.118 9.394 130.142 8.122C130.154 7.774 130.16 7.294 130.16 6.682C130.16 6.07 130.154 5.602 130.142 5.278C130.118 4.03 129.836 3.058 129.296 2.362C128.768 1.654 127.988 1.3 126.956 1.3C125.924 1.3 125.138 1.654 124.598 2.362C124.07 3.058 123.794 4.03 123.77 5.278L123.752 6.682L123.77 8.122C123.794 9.394 124.07 10.378 124.598 11.074C125.138 11.758 125.924 12.1 126.956 12.1ZM139.233 13C139.113 13 139.017 12.964 138.945 12.892C138.873 12.82 138.837 12.724 138.837 12.604V0.813999C138.837 0.693999 138.873 0.597999 138.945 0.526C139.017 0.441999 139.113 0.399999 139.233 0.399999H143.607C144.891 0.399999 145.899 0.723999 146.631 1.372C147.375 2.008 147.747 2.926 147.747 4.126C147.747 5.326 147.375 6.25 146.631 6.898C145.899 7.534 144.891 7.852 143.607 7.852H139.971V12.604C139.971 12.724 139.929 12.82 139.845 12.892C139.773 12.964 139.677 13 139.557 13H139.233ZM143.517 6.772C144.549 6.772 145.323 6.55 145.839 6.106C146.355 5.65 146.613 4.99 146.613 4.126C146.613 3.262 146.355 2.608 145.839 2.164C145.323 1.708 144.549 1.48 143.517 1.48H139.971V6.772H143.517ZM150.553 13C150.433 13 150.331 12.964 150.247 12.892C150.175 12.82 150.139 12.724 150.139 12.604V0.813999C150.139 0.681999 150.175 0.58 150.247 0.508C150.331 0.435999 150.433 0.399999 150.553 0.399999H151.003C151.183 0.399999 151.309 0.477999 151.381 0.633999L155.467 8.59L159.571 0.633999C159.655 0.477999 159.781 0.399999 159.949 0.399999H160.381C160.513 0.399999 160.615 0.435999 160.687 0.508C160.759 0.58 160.795 0.681999 160.795 0.813999V12.604C160.795 12.724 160.753 12.82 160.669 12.892C160.597 12.964 160.501 13 160.381 13H160.057C159.937 13 159.841 12.964 159.769 12.892C159.697 12.82 159.661 12.724 159.661 12.604V2.848L156.223 9.616C156.115 9.856 155.929 9.976 155.665 9.976H155.269C155.005 9.976 154.819 9.856 154.711 9.616L151.273 2.848V12.604C151.273 12.724 151.237 12.82 151.165 12.892C151.093 12.964 150.997 13 150.877 13H150.553Z" fill="#363853"/>
</svg>
