<svg width="102" height="25" viewBox="0 0 102 25" fill="none" xmlns="http://www.w3.org/2000/svg">
<path d="M1.366 24C1.146 24 0.959 23.923 0.805 23.769C0.651 23.615 0.574 23.428 0.574 23.208V1.725C0.574 1.483 0.64 1.285 0.772 1.131C0.926 0.976999 1.124 0.899998 1.366 0.899998H15.886C16.128 0.899998 16.326 0.976999 16.48 1.131C16.634 1.285 16.711 1.483 16.711 1.725V3.903C16.711 4.145 16.634 4.343 16.48 4.497C16.326 4.629 16.128 4.695 15.886 4.695H5.029V10.536H15.16C15.402 10.536 15.6 10.613 15.754 10.767C15.908 10.899 15.985 11.086 15.985 11.328V13.374C15.985 13.616 15.908 13.814 15.754 13.968C15.6 14.1 15.402 14.166 15.16 14.166H5.029V20.205H16.15C16.392 20.205 16.59 20.282 16.744 20.436C16.898 20.59 16.975 20.788 16.975 21.03V23.208C16.975 23.45 16.898 23.648 16.744 23.802C16.59 23.934 16.392 24 16.15 24H1.366Z" fill="#FF7A50"/>
<path d="M23.5443 24C23.3243 24 23.1373 23.923 22.9833 23.769C22.8293 23.615 22.7523 23.428 22.7523 23.208V1.725C22.7523 1.483 22.8183 1.285 22.9503 1.131C23.1043 0.976999 23.3023 0.899998 23.5443 0.899998H37.8663C38.1083 0.899998 38.3063 0.976999 38.4603 1.131C38.6143 1.285 38.6913 1.483 38.6913 1.725V4.035C38.6913 4.277 38.6143 4.475 38.4603 4.629C38.3063 4.761 38.1083 4.827 37.8663 4.827H27.2733V11.097H37.2063C37.4483 11.097 37.6463 11.174 37.8003 11.328C37.9543 11.482 38.0313 11.68 38.0313 11.922V14.232C38.0313 14.474 37.9543 14.672 37.8003 14.826C37.6463 14.958 37.4483 15.024 37.2063 15.024H27.2733V23.208C27.2733 23.45 27.1963 23.648 27.0423 23.802C26.8883 23.934 26.6903 24 26.4483 24H23.5443ZM51.0934 24.33C48.5194 24.33 46.5284 23.67 45.1204 22.35C43.7124 21.008 42.9534 19.182 42.8434 16.872L42.8104 15.42L42.8434 13.968C42.9534 11.68 43.7234 9.865 45.1534 8.523C46.5834 7.181 48.5634 6.51 51.0934 6.51C53.6234 6.51 55.6034 7.181 57.0334 8.523C58.4634 9.865 59.2334 11.68 59.3434 13.968C59.3654 14.232 59.3764 14.716 59.3764 15.42C59.3764 16.124 59.3654 16.608 59.3434 16.872C59.2334 19.182 58.4744 21.008 57.0664 22.35C55.6584 23.67 53.6674 24.33 51.0934 24.33ZM51.0934 21.063C52.2594 21.063 53.1614 20.7 53.7994 19.974C54.4374 19.226 54.7894 18.137 54.8554 16.707C54.8774 16.487 54.8884 16.058 54.8884 15.42C54.8884 14.782 54.8774 14.353 54.8554 14.133C54.7894 12.703 54.4374 11.625 53.7994 10.899C53.1614 10.151 52.2594 9.777 51.0934 9.777C49.9274 9.777 49.0254 10.151 48.3874 10.899C47.7494 11.625 47.3974 12.703 47.3314 14.133L47.2984 15.42L47.3314 16.707C47.3974 18.137 47.7494 19.226 48.3874 19.974C49.0254 20.7 49.9274 21.063 51.0934 21.063ZM72.2727 24.33C69.6987 24.33 67.7077 23.67 66.2997 22.35C64.8917 21.008 64.1327 19.182 64.0227 16.872L63.9897 15.42L64.0227 13.968C64.1327 11.68 64.9027 9.865 66.3327 8.523C67.7627 7.181 69.7427 6.51 72.2727 6.51C74.8027 6.51 76.7827 7.181 78.2127 8.523C79.6427 9.865 80.4127 11.68 80.5227 13.968C80.5447 14.232 80.5557 14.716 80.5557 15.42C80.5557 16.124 80.5447 16.608 80.5227 16.872C80.4127 19.182 79.6537 21.008 78.2457 22.35C76.8377 23.67 74.8467 24.33 72.2727 24.33ZM72.2727 21.063C73.4387 21.063 74.3407 20.7 74.9787 19.974C75.6167 19.226 75.9687 18.137 76.0347 16.707C76.0567 16.487 76.0677 16.058 76.0677 15.42C76.0677 14.782 76.0567 14.353 76.0347 14.133C75.9687 12.703 75.6167 11.625 74.9787 10.899C74.3407 10.151 73.4387 9.777 72.2727 9.777C71.1067 9.777 70.2047 10.151 69.5667 10.899C68.9287 11.625 68.5767 12.703 68.5107 14.133L68.4777 15.42L68.5107 16.707C68.5767 18.137 68.9287 19.226 69.5667 19.974C70.2047 20.7 71.1067 21.063 72.2727 21.063ZM92.231 24.33C90.009 24.33 88.304 23.615 87.116 22.185C85.928 20.755 85.29 18.852 85.202 16.476L85.169 15.387L85.202 14.331C85.268 12.021 85.895 10.14 87.083 8.688C88.293 7.236 90.009 6.51 92.231 6.51C94.365 6.51 96.059 7.236 97.313 8.688V1.362C97.313 1.12 97.39 0.932999 97.544 0.801C97.698 0.646999 97.885 0.569999 98.105 0.569999H100.91C101.152 0.569999 101.339 0.646999 101.471 0.801C101.625 0.932999 101.702 1.12 101.702 1.362V23.208C101.702 23.428 101.625 23.615 101.471 23.769C101.339 23.923 101.152 24 100.91 24H98.303C98.083 24 97.896 23.923 97.742 23.769C97.588 23.615 97.511 23.428 97.511 23.208V21.987C96.257 23.549 94.497 24.33 92.231 24.33ZM93.452 20.799C94.728 20.799 95.674 20.392 96.29 19.578C96.906 18.764 97.247 17.763 97.313 16.575C97.335 16.311 97.346 15.882 97.346 15.288C97.346 14.716 97.335 14.298 97.313 14.034C97.269 12.934 96.917 11.999 96.257 11.229C95.619 10.437 94.684 10.041 93.452 10.041C91.076 10.041 89.811 11.504 89.657 14.43L89.624 15.42L89.657 16.41C89.811 19.336 91.076 20.799 93.452 20.799Z" fill="#37383D"/>
</svg>
